<?xml version="1.0" encoding="utf-8"?>
<!-- Generator: Adobe Illustrator 15.0.0, SVG Export Plug-In . SVG Version: 6.00 Build 0)  -->
<!DOCTYPE svg PUBLIC "-//W3C//DTD SVG 1.1//EN" "http://www.w3.org/Graphics/SVG/1.1/DTD/svg11.dtd">
<svg version="1.1" id="Layer_1" xmlns="http://www.w3.org/2000/svg" xmlns:xlink="http://www.w3.org/1999/xlink" x="0px" y="0px"
	 width="750px" height="750px" viewBox="0 0 750 750" enable-background="new 0 0 750 750" xml:space="preserve">
	<path fill="#FAFAFA" class="st0" d="M597.522,645.064L436.577,331.641C607.575,72.615,444.276,0,422.896,0
		c-21.383,0-138.992,10.693-138.992,160.377s55.239,226.301,55.239,226.301L155.604,734.156c0,0-28.515,35.648,40.998,0
		c69.509-35.637,181.294-316.752,181.294-316.752l22.406,43.664c-10.865,11.15-73.476,82.348-4.818,179.068
		c62.666,88.289,125.514,93.352,144.318,92.66l0.701,1.359C618.913,712.775,597.522,645.064,597.522,645.064z M353.402,176.414
		c0-53.461,12.471-121.184,65.052-121.184c27.621,0,45.422,17.824,45.422,106.922c0,69.773-59.502,132.691-62.232,135.305
		c0.035,0.053,0.088,0.123,0.088,0.123h-0.219c0,0,0.072-0.07,0.131-0.123C399.79,294.838,353.402,228.797,353.402,176.414z
		 M415.771,595.904c-24.527-46.043-10.494-82.037,1.832-101.15l94.717,184.506C494.331,673.096,445.581,651.891,415.771,595.904z"/>

</svg>
