<?xml version="1.0" encoding="utf-8"?>
<!-- Generator: Adobe Illustrator 15.0.0, SVG Export Plug-In . SVG Version: 6.00 Build 0)  -->
<!DOCTYPE svg PUBLIC "-//W3C//DTD SVG 1.1//EN" "http://www.w3.org/Graphics/SVG/1.1/DTD/svg11.dtd">
<svg version="1.1" id="Layer_1" xmlns="http://www.w3.org/2000/svg" xmlns:xlink="http://www.w3.org/1999/xlink" x="0px" y="0px"
	 width="750px" height="750px" viewBox="0 0 750 750" enable-background="new 0 0 750 750" xml:space="preserve">
	<path fill="#FAFAFA" class="st0" d="M431.916,515.766c34.182-95.924,43.32-195.492,43.32-296.422C475.236,33.018,300.707,0,300.707,0
		c-10.222,25.939-25.875,61.945,14.76,80.502c162.914,74.373,63.07,432.076,39.486,431.291
		c-51.86-1.732-169.812-30.662-169.812-30.662s1.078,20.912,4.652,42.791l23.483,208.096c-0.226,0.721-0.239,1.271,0.167,1.471
		c17.9,8.953,37.735,16.512,68.202,16.512c54.891-54.891,94.736-111.961,123.5-170.643c0.223,0.047,0.447,0.064,0.662,0.111
		c-0.018-0.439-0.025-0.891-0.049-1.33c0.428-0.873,0.869-1.74,1.285-2.607c12.627,0.539,109.355,4.658,130.486,4.658
		c22.613,0,27.33-91.98,27.33-91.98S488.752,507.984,431.916,515.766z M257.692,681.381c-8.908-37.213-20.789-82.201-28.698-108.586
		c38.002-1.061,115.345-4.4,115.345-4.4C338.25,594.117,293.318,643.324,257.692,681.381z"/>
</svg>
