<?xml version="1.0" encoding="utf-8"?>
<!-- Generator: Adobe Illustrator 15.0.0, SVG Export Plug-In . SVG Version: 6.00 Build 0)  -->
<!DOCTYPE svg PUBLIC "-//W3C//DTD SVG 1.1//EN" "http://www.w3.org/Graphics/SVG/1.1/DTD/svg11.dtd">
<svg version="1.1" id="Layer_1" xmlns="http://www.w3.org/2000/svg" xmlns:xlink="http://www.w3.org/1999/xlink" x="0px" y="0px"
	 width="750px" height="750px" viewBox="0 0 750 750" enable-background="new 0 0 750 750" xml:space="preserve">
	<path fill="#FAFAFA" class="st0" d="M433.343,0.286c0.014,0.058,0.022,0.115,0.036,0.172c-0.866,0.415-1.695,1.105-2.475,2.159
	c-127.31,172.107-148.427,241.102-148.427,241.102s61.004-3.369,92.918-31.271c9.822-8.587,39.317-122.801,49.373-137.396
	c-10.299,27.524,81.153,270.164,78.831,469.821c-1.861,160.309-160.316,146.174-160.316,146.174
	c59.119,0,78.979-100.199,78.979-187.432c0-89.59-38.896-173.288-126.135-173.288c-118.098,0-117.881,174.465-117.881,188.612
	c0,14.146-14.146,231.048,186.254,231.048c200.4,0,207.471-231.049,207.471-254.625C571.97,472.434,468.683-13.151,433.343,0.286z
	 M296.126,643.895c-16.502,0-61.297-44.793-61.297-136.738c0-91.949,66.014-110.812,66.014-110.812s61.293-2.354,61.293,106.1
	C362.14,641.537,336.206,643.895,296.126,643.895z"/>
</svg>
