<?xml version="1.0" encoding="utf-8"?>
<!-- Generator: Adobe Illustrator 15.0.0, SVG Export Plug-In . SVG Version: 6.00 Build 0)  -->
<!DOCTYPE svg PUBLIC "-//W3C//DTD SVG 1.1//EN" "http://www.w3.org/Graphics/SVG/1.1/DTD/svg11.dtd">
<svg version="1.1" id="Layer_1" xmlns="http://www.w3.org/2000/svg" xmlns:xlink="http://www.w3.org/1999/xlink" x="0px" y="0px"
	 width="750px" height="750px" viewBox="0 0 750 750" enable-background="new 0 0 750 750" xml:space="preserve">
	<path fill="#FAFAFA" class="st0" d="M749.949,489.45c0.68-3.799-22.77-104.29-61.562-117.373c-26.212-15.17-63.324-25.353-115.822-24.732
	c-198.239,2.33-279.868-221.564-403.479-221.564c-123.606,0-161.254,86.627-161.254,86.627L0,260.463
	c0,0,46.645-62.383,164.423-62.383c81.627,0,136.446,208.077,328.846,209.901c9.642,0.091,18.682,0.396,27.193,0.874
	c6.309,0.354,12.335,0.803,18.058,1.35c-1.228,0.807-2.464,1.613-3.705,2.42c-56.919,36.99-127.668,73.95-127.668,73.95
	c39.875,35.755,133.994-18.286,189.945-56.192c2.946-1.996,5.792-3.95,8.514-5.842c58.074,22.945,43.923,61.569,43.923,61.569
	s6.996,40.228-60.64,50.146c-271.822,39.851-357.997,0-357.997,0c0,32.649,60.494,87.964,117.635,87.964
	c1.837,0,65.172-1.802,65.172-1.802c160.085,0,244.642-25.73,289.051-54.556C744.812,538.224,750.638,490.602,749.949,489.45z"/>
</svg>
